<?xml version="1.0" encoding="UTF-8" standalone="no"?>
<!-- Created with Inkscape (http://www.inkscape.org/) -->

<svg
   xmlns:dc="http://purl.org/dc/elements/1.1/"
   xmlns:cc="http://creativecommons.org/ns#"
   xmlns:rdf="http://www.w3.org/1999/02/22-rdf-syntax-ns#"
   xmlns:svg="http://www.w3.org/2000/svg"
   xmlns="http://www.w3.org/2000/svg"
   xmlns:xlink="http://www.w3.org/1999/xlink"
   xmlns:sodipodi="http://sodipodi.sourceforge.net/DTD/sodipodi-0.dtd"
   xmlns:inkscape="http://www.inkscape.org/namespaces/inkscape"
   id="svg2"
   sodipodi:version="0.32"
   inkscape:version="0.92.1 r15371"
   width="300"
   height="261.09329"
   version="1.0"
   sodipodi:docname="gfif_path_square.svg"
   style="display:inline"
   inkscape:output_extension="org.inkscape.output.svg.inkscape"
   inkscape:export-filename="/home/restrepo/burocracia/GFIF/Imagen/gfif.png"
   inkscape:export-xdpi="90"
   inkscape:export-ydpi="90">
  <metadata
     id="metadata7">
    <rdf:RDF>
      <cc:Work
         rdf:about="">
        <dc:format>image/svg+xml</dc:format>
        <dc:type
           rdf:resource="http://purl.org/dc/dcmitype/StillImage" />
        <dc:title></dc:title>
      </cc:Work>
    </rdf:RDF>
  </metadata>
  <defs
     id="defs5">
    <inkscape:perspective
       sodipodi:type="inkscape:persp3d"
       inkscape:vp_x="0 : 526.18109 : 1"
       inkscape:vp_y="0 : 1000 : 0"
       inkscape:vp_z="744.09448 : 526.18109 : 1"
       inkscape:persp3d-origin="372.04724 : 350.78739 : 1"
       id="perspective9" />
    <inkscape:perspective
       id="perspective3356"
       inkscape:persp3d-origin="372.04724 : 350.78739 : 1"
       inkscape:vp_z="744.09448 : 526.18109 : 1"
       inkscape:vp_y="0 : 1000 : 0"
       inkscape:vp_x="0 : 526.18109 : 1"
       sodipodi:type="inkscape:persp3d" />
  </defs>
  <sodipodi:namedview
     inkscape:window-height="1043"
     inkscape:window-width="1920"
     inkscape:pageshadow="2"
     inkscape:pageopacity="0.0"
     guidetolerance="10.0"
     gridtolerance="10.0"
     objecttolerance="10.0"
     borderopacity="1.0"
     bordercolor="#666666"
     pagecolor="#ffffff"
     id="base"
     showgrid="false"
     inkscape:zoom="2.1498149"
     inkscape:cx="253.06262"
     inkscape:cy="91.380312"
     inkscape:window-x="0"
     inkscape:window-y="0"
     inkscape:current-layer="layer2"
     inkscape:snap-guide="false"
     inkscape:window-maximized="1"
     fit-margin-top="0"
     fit-margin-left="0"
     fit-margin-right="0"
     fit-margin-bottom="0"
     showguides="false" />
  <g
     inkscape:groupmode="layer"
     id="layer7"
     inkscape:label="background"
     style="display:inline"
     transform="translate(-0.17869948,190.17737)" />
  <g
     inkscape:groupmode="layer"
     id="layer4"
     inkscape:label="original"
     style="display:none"
     transform="translate(-43.094809,171.66641)">
    <image
       sodipodi:absref="/home/restrepo/burocracia/GFIF/Imagen/higgs_decay_simulation.gif"
       xlink:href="higgs_decay_simulation.gif"
       style="display:inline"
       width="146.07509"
       height="80"
       id="image11"
       x="7.9731483"
       y="15.000001" />
  </g>
  <g
     inkscape:groupmode="layer"
     id="layer1"
     inkscape:label="sqaure"
     style="display:inline"
     transform="translate(-43.094809,171.66641)">
    <rect
       style="display:inline;overflow:visible;visibility:visible;fill:#cce5ff;fill-opacity:1;fill-rule:nonzero;stroke:none;stroke-width:3.68520308;marker:none;enable-background:accumulate"
       id="rect3189"
       width="299.93518"
       height="260.08344"
       x="43.159634"
       y="-171.66641"
       inkscape:export-xdpi="90"
       inkscape:export-ydpi="90"
       inkscape:export-filename="/home/restrepo/burocracia/GFIF/Imagen/gfif.png" />
  </g>
  <g
     inkscape:groupmode="layer"
     id="layer3"
     inkscape:label="linesdown"
     transform="translate(-43.094809,171.66641)"
     style="display:inline">
    <path
       style="fill:none;stroke:#ff0000;stroke-width:3.68520308px;stroke-linecap:butt;stroke-linejoin:miter;stroke-opacity:1"
       d="m 186.71385,-35.565079 c 38.88703,47.856811 82.21567,85.463812 127.42341,123.583296"
       id="path3216"
       sodipodi:nodetypes="cc"
       inkscape:export-filename="/home/restrepo/burocracia/GFIF/Imagen/gfif.png"
       inkscape:export-xdpi="90"
       inkscape:export-ydpi="90"
       inkscape:connector-curvature="0" />
    <path
       sodipodi:nodetypes="cc"
       id="path3218"
       d="M 186.71385,-35.565079 C 169.41418,33.936275 163.78647,48.1532 152.5015,88.367317"
       style="fill:none;stroke:#ff0000;stroke-width:3.68520308px;stroke-linecap:butt;stroke-linejoin:miter;stroke-opacity:1"
       inkscape:export-filename="/home/restrepo/burocracia/GFIF/Imagen/gfif.png"
       inkscape:export-xdpi="90"
       inkscape:export-ydpi="90"
       inkscape:connector-curvature="0" />
    <path
       sodipodi:nodetypes="cc"
       id="path3240"
       d="m 186.71385,-35.565079 c 81.12879,-32.088307 120.61726,-73.379101 155.00274,-92.512891"
       style="fill:none;stroke:#ffff00;stroke-width:3.68520308px;stroke-linecap:butt;stroke-linejoin:miter;stroke-opacity:1"
       inkscape:export-filename="/home/restrepo/burocracia/GFIF/Imagen/gfif.png"
       inkscape:export-xdpi="90"
       inkscape:export-ydpi="90"
       inkscape:connector-curvature="0" />
    <path
       style="fill:none;stroke:#0000ff;stroke-width:1.84260154;stroke-linecap:butt;stroke-linejoin:miter;stroke-miterlimit:4;stroke-dasharray:none;stroke-opacity:1"
       d="m 186.71385,-35.565079 c 81.12879,-32.088307 120.61726,-73.379101 155.00274,-92.512891"
       id="path3242"
       sodipodi:nodetypes="cc"
       inkscape:export-filename="/home/restrepo/burocracia/GFIF/Imagen/gfif.png"
       inkscape:export-xdpi="90"
       inkscape:export-ydpi="90"
       inkscape:connector-curvature="0" />
    <path
       sodipodi:nodetypes="cc"
       id="path3246"
       d="m 186.71385,-35.565079 c 81.12879,-32.088307 120.61726,-73.379101 155.00274,-92.512891"
       style="fill:none;stroke:#0000ff;stroke-width:1.84260154;stroke-linecap:butt;stroke-linejoin:miter;stroke-miterlimit:4;stroke-dasharray:none;stroke-opacity:1"
       inkscape:export-filename="/home/restrepo/burocracia/GFIF/Imagen/gfif.png"
       inkscape:export-xdpi="90"
       inkscape:export-ydpi="90"
       inkscape:connector-curvature="0" />
    <path
       sodipodi:nodetypes="cccc"
       id="path3248"
       d="M 186.71385,-35.565079 C 140.79626,-118.56633 105.58208,-128.32873 80.167072,-117.89973 16.839324,-78.298353 47.850567,29.360764 104.00308,21.810263 c 36.24087,2.657179 68.97104,-46.888982 80.62207,-55.861697"
       style="fill:none;stroke:#ffff00;stroke-width:3.68520308px;stroke-linecap:butt;stroke-linejoin:miter;stroke-opacity:1"
       inkscape:export-filename="/home/restrepo/burocracia/GFIF/Imagen/gfif.png"
       inkscape:export-xdpi="90"
       inkscape:export-ydpi="90"
       inkscape:connector-curvature="0" />
    <path
       style="fill:none;stroke:#5e2691;stroke-width:1.84260154;stroke-linecap:butt;stroke-linejoin:miter;stroke-miterlimit:4;stroke-dasharray:none;stroke-opacity:1"
       d="M 186.71385,-35.565079 C 140.79626,-118.56633 105.58208,-128.32873 80.167072,-117.89973 16.839324,-78.298353 47.850567,29.360764 104.00308,21.810263 c 36.24087,2.657179 68.97104,-46.888982 80.62207,-55.861697"
       id="path3250"
       sodipodi:nodetypes="cccc"
       inkscape:export-filename="/home/restrepo/burocracia/GFIF/Imagen/gfif.png"
       inkscape:export-xdpi="90"
       inkscape:export-ydpi="90"
       inkscape:connector-curvature="0" />
    <path
       style="fill:none;stroke:#ffff00;stroke-width:3.68520308;stroke-linecap:butt;stroke-linejoin:miter;stroke-miterlimit:4;stroke-dasharray:none;stroke-opacity:1"
       d="M 186.71385,-35.565079 C 135.53173,-26.808064 69.590387,-32.49012 44.278868,-53.718538"
       id="path3281"
       sodipodi:nodetypes="cc"
       inkscape:export-filename="/home/restrepo/burocracia/GFIF/Imagen/gfif.png"
       inkscape:export-xdpi="90"
       inkscape:export-ydpi="90"
       inkscape:connector-curvature="0" />
    <path
       sodipodi:nodetypes="cc"
       id="path3283"
       d="M 186.71385,-35.565079 C 135.53173,-26.808064 69.590387,-32.49012 44.278868,-53.718538"
       style="fill:none;stroke:#0000ff;stroke-width:1.84260154;stroke-linecap:butt;stroke-linejoin:miter;stroke-miterlimit:4;stroke-dasharray:none;stroke-opacity:1"
       inkscape:export-filename="/home/restrepo/burocracia/GFIF/Imagen/gfif.png"
       inkscape:export-xdpi="90"
       inkscape:export-ydpi="90"
       inkscape:connector-curvature="0" />
  </g>
  <g
     inkscape:groupmode="layer"
     id="layer2"
     inkscape:label="gfif"
     style="display:inline"
     transform="translate(-43.094809,171.66641)">
    <g
       style="display:inline;fill:#000000;fill-opacity:1"
       id="g3176"
       transform="matrix(3.6852033,0,0,3.6852033,720.92482,-631.36989)"
       inkscape:export-filename="/home/restrepo/burocracia/GFIF/Imagen/gfif.png"
       inkscape:export-xdpi="90"
       inkscape:export-ydpi="90">
      <g
         transform="scale(-1,1)"
         style="font-style:normal;font-variant:normal;font-weight:normal;font-stretch:normal;font-size:40px;line-height:100%;font-family:'Good Times';-inkscape-font-specification:'Good Times';text-align:start;writing-mode:lr-tb;text-anchor:start;fill:#000000;stroke:none"
         id="text2388">
        <path
           d="m 110.95782,191.9465 v -29.08 h 24.68 v 5.08 h -19.64 v 24 h -5.04 m 8.76,-12.04 v -4.44 h 14.72 v 4.44 h -14.72"
           id="path3016"
           inkscape:connector-curvature="0" />
      </g>
      <g
         id="g3170"
         style="fill:#000000;fill-opacity:1">
        <g
           style="font-style:normal;font-variant:normal;font-weight:normal;font-stretch:normal;font-size:40px;line-height:100%;font-family:'Good Times';-inkscape-font-specification:'Good Times';text-align:start;writing-mode:lr-tb;text-anchor:start;fill:#000000;stroke:none"
           id="text2384">
          <path
             d="m -175.48371,191.14233 v -29.08 h 24.68 v 5.08 h -19.64 v 24 h -5.04 m 8.76,-12.04 v -4.44 h 14.72 v 4.44 h -14.72"
             id="path3019"
             inkscape:connector-curvature="0" />
          <path
             d="m -147.00058,191.14233 v -29.08 h 5.08 v 29.08 h -5.08"
             id="path3021"
             inkscape:connector-curvature="0" />
        </g>
        <g
           transform="rotate(90)"
           style="font-style:normal;font-variant:normal;font-weight:normal;font-stretch:normal;font-size:40px;line-height:100%;font-family:'Good Times';-inkscape-font-specification:'Good Times';text-align:start;writing-mode:lr-tb;text-anchor:start;fill:#000000;stroke:none"
           id="text2392">
          <path
             d="m 141.99467,158.56317 c -2.02668,0 -3.90668,-0.37333 -5.64,-1.12 -1.70667,-0.77333 -3.20001,-1.81333 -4.48,-3.12 -1.25334,-1.33333 -2.24,-2.90666 -2.96,-4.72 -0.69333,-1.81332 -1.04,-3.77332 -1.04,-5.88 0,-2.13331 0.34667,-4.07998 1.04,-5.84 0.72,-1.75998 1.70666,-3.25331 2.96,-4.48 1.27999,-1.2533 2.77333,-2.2133 4.48,-2.88 1.73332,-0.6933 3.61332,-1.03997 5.64,-1.04 h 15.76 v 5.08 h -15.76 c -1.30668,3e-5 -2.52001,0.24003 -3.64,0.72 -1.09334,0.45336 -2.04001,1.09336 -2.84,1.92 -0.80001,0.82669 -1.42667,1.81335 -1.88,2.96 -0.45334,1.14669 -0.68001,2.41335 -0.68,3.8 -1e-5,1.36002 0.22666,2.62668 0.68,3.8 0.45333,1.17334 1.07999,2.18668 1.88,3.04 0.79999,0.82668 1.74666,1.48001 2.84,1.96 1.11999,0.48001 2.33332,0.72001 3.64,0.72 h 12.44 v -7.56 h -13.12 v -4.28 h 18.24 v 16.92 h -17.56"
             id="path3024"
             inkscape:connector-curvature="0" />
        </g>
      </g>
    </g>
  </g>
  <g
     inkscape:groupmode="layer"
     id="layer5"
     inkscape:label="linesup"
     style="display:inline"
     transform="translate(-43.094809,171.66641)">
    <path
       sodipodi:nodetypes="cc"
       id="path3258"
       d="m 186.71385,-35.565079 c 40.21076,20.058505 53.9761,21.924835 104.92002,24.303642"
       style="display:inline;fill:none;stroke:#ffff00;stroke-width:3.68520308px;stroke-linecap:butt;stroke-linejoin:miter;stroke-opacity:1"
       inkscape:export-filename="/home/restrepo/burocracia/GFIF/Imagen/gfif.png"
       inkscape:export-xdpi="90"
       inkscape:export-ydpi="90"
       inkscape:connector-curvature="0" />
    <path
       style="display:inline;fill:none;stroke:#ffb600;stroke-width:1.84260154;stroke-linecap:butt;stroke-linejoin:miter;stroke-miterlimit:4;stroke-dasharray:none;stroke-opacity:1"
       d="m 186.71385,-35.565079 c 40.21076,20.058505 53.9761,21.924835 104.92002,24.303642"
       id="path3262"
       sodipodi:nodetypes="cc"
       inkscape:export-filename="/home/restrepo/burocracia/GFIF/Imagen/gfif.png"
       inkscape:export-xdpi="90"
       inkscape:export-ydpi="90"
       inkscape:connector-curvature="0" />
    <path
       sodipodi:nodetypes="cc"
       id="path3264"
       d="M 186.71385,-35.565079 C 217.6585,-68.896968 230.98262,-125.2747 214.8576,-170.99139"
       style="display:inline;fill:none;stroke:#ffb600;stroke-width:1.84260154;stroke-linecap:butt;stroke-linejoin:miter;stroke-miterlimit:4;stroke-dasharray:none;stroke-opacity:1"
       inkscape:export-filename="/home/restrepo/burocracia/GFIF/Imagen/gfif.png"
       inkscape:export-xdpi="90"
       inkscape:export-ydpi="90"
       inkscape:connector-curvature="0" />
  </g>
  <g
     inkscape:groupmode="layer"
     id="layer6"
     inkscape:label="label"
     style="display:none"
     transform="translate(-43.094809,171.66641)">
    <g
       style="font-style:normal;font-variant:normal;font-weight:normal;font-stretch:normal;font-size:18px;line-height:100%;font-family:'Good Times';-inkscape-font-specification:'Good Times';text-align:start;writing-mode:lr-tb;text-anchor:start;display:inline;fill:#000000;fill-opacity:1;stroke:none"
       id="text3266">
      <path
         d="m 144.68909,46.881481 c -0.91201,0 -1.75801,-0.168 -2.538,-0.504 -0.76801,-0.347999 -1.44001,-0.815999 -2.016,-1.404 -0.56401,-0.599997 -1.00801,-1.307997 -1.332,-2.124 -0.312,-0.815995 -0.468,-1.697994 -0.468,-2.646 0,-0.959992 0.156,-1.835991 0.468,-2.628 0.32399,-0.79199 0.76799,-1.463989 1.332,-2.016 0.57599,-0.563988 1.24799,-0.995988 2.016,-1.296 0.77999,-0.311987 1.62599,-0.467987 2.538,-0.468 h 7.092 v 2.286 h -7.092 c -0.58801,1.1e-5 -1.13401,0.108011 -1.638,0.324 -0.49201,0.20401 -0.91801,0.49201 -1.278,0.864 -0.36001,0.372009 -0.64201,0.816009 -0.846,1.332 -0.20401,0.516008 -0.30601,1.086007 -0.306,1.71 -1e-5,0.612006 0.10199,1.182006 0.306,1.71 0.20399,0.528005 0.48599,0.984004 0.846,1.368 0.35999,0.372003 0.78599,0.666003 1.278,0.882 0.50399,0.216003 1.04999,0.324002 1.638,0.324 h 5.598 v -3.402 h -5.904 v -1.926 h 8.208 v 7.614 h -7.902"
         id="path3027"
         inkscape:connector-curvature="0"
         style="fill:#000000" />
      <path
         d="m 166.82402,46.881481 -3.312,-3.636 h -4.896 v -2.016 h 5.454 c 0.82799,6e-6 1.45199,-0.221994 1.872,-0.666 0.41999,-0.443993 0.62999,-1.097992 0.63,-1.962 -1e-5,-0.863991 -0.22201,-1.49999 -0.666,-1.908 -0.43201,-0.407989 -1.04401,-0.611989 -1.836,-0.612 h -7.128 v 10.8 h -2.268 v -13.086 h 9.396 c 0.74399,1.3e-5 1.40999,0.114013 1.998,0.342 0.58799,0.216013 1.08599,0.534012 1.494,0.954 0.40799,0.408012 0.71999,0.906011 0.936,1.494 0.21599,0.58801 0.32399,1.248009 0.324,1.98 -1e-5,1.092007 -0.23401,2.010006 -0.702,2.754 -0.46801,0.732005 -1.13401,1.260004 -1.998,1.584 l 3.942,3.978 h -3.24"
         id="path3029"
         inkscape:connector-curvature="0"
         style="fill:#000000" />
      <path
         d="m 182.58106,33.795481 h 2.232 v 7.308 c -2e-5,1.008005 -0.13202,1.890004 -0.396,2.646 -0.26402,0.744003 -0.67802,1.362002 -1.242,1.854 -0.56402,0.492001 -1.29602,0.858001 -2.196,1.098 -0.88802,0.24 -1.96801,0.36 -3.24,0.36 -1.26001,0 -2.34001,-0.12 -3.24,-0.36 -0.88801,-0.239999 -1.61401,-0.605999 -2.178,-1.098 -0.56401,-0.491998 -0.97801,-1.109997 -1.242,-1.854 -0.26401,-0.755996 -0.39601,-1.637995 -0.396,-2.646 v -7.308 h 2.358 v 7.308 c -10e-6,0.660005 0.078,1.224005 0.234,1.692 0.16799,0.468004 0.43199,0.852003 0.792,1.152 0.37199,0.300003 0.86399,0.522003 1.476,0.666 0.61199,0.132002 1.36799,0.198002 2.268,0.198 0.89999,2e-6 1.65599,-0.066 2.268,-0.198 0.61198,-0.143997 1.09798,-0.365997 1.458,-0.666 0.37198,-0.299997 0.63598,-0.683996 0.792,-1.152 0.16798,-0.467995 0.25198,-1.031995 0.252,-1.692 v -7.308"
         id="path3031"
         inkscape:connector-curvature="0"
         style="fill:#000000" />
      <path
         d="m 190.81915,43.245481 v -2.214 h 5.256 c 0.80399,6e-6 1.42799,-0.221994 1.872,-0.666 0.45599,-0.455993 0.68399,-1.061992 0.684,-1.818 -1e-5,-0.755991 -0.22801,-1.35599 -0.684,-1.8 -0.44401,-0.443989 -1.06801,-0.665989 -1.872,-0.666 h -6.93 v 10.8 h -2.268 v -13.086 h 9.198 c 0.75599,1.3e-5 1.42799,0.114013 2.016,0.342 0.59999,0.216013 1.10399,0.528012 1.512,0.936 0.40798,0.396012 0.71998,0.882011 0.936,1.458 0.21598,0.57601 0.32398,1.224009 0.324,1.944 -2e-5,0.708008 -0.10802,1.356007 -0.324,1.944 -0.21602,0.576006 -0.52802,1.074006 -0.936,1.494 -0.40801,0.420005 -0.91201,0.750004 -1.512,0.99 -0.58801,0.228004 -1.26001,0.342004 -2.016,0.342 h -5.256"
         id="path3033"
         inkscape:connector-curvature="0"
         style="fill:#000000" />
      <path
         d="m 208.46252,46.881481 c -0.912,0 -1.758,-0.168 -2.538,-0.504 -0.768,-0.347999 -1.44,-0.815999 -2.016,-1.404 -0.564,-0.599997 -1.008,-1.307997 -1.332,-2.124 -0.312,-0.815995 -0.468,-1.697994 -0.468,-2.646 0,-0.959992 0.156,-1.835991 0.468,-2.628 0.324,-0.79199 0.768,-1.463989 1.332,-2.016 0.576,-0.563988 1.248,-0.995988 2.016,-1.296 0.78,-0.311987 1.626,-0.467987 2.538,-0.468 h 3.186 c 0.94799,1.3e-5 1.81199,0.156013 2.592,0.468 0.79199,0.312012 1.46999,0.750012 2.034,1.314 0.56399,0.564011 1.00199,1.24201 1.314,2.034 0.31199,0.780009 0.46799,1.644008 0.468,2.592 -1e-5,0.948006 -0.16201,1.830005 -0.486,2.646 -0.31201,0.816003 -0.75601,1.524003 -1.332,2.124 -0.56401,0.588001 -1.23601,1.056001 -2.016,1.404 -0.78001,0.336 -1.63801,0.504 -2.574,0.504 h -3.186 m 3.186,-2.286 c 0.59999,2e-6 1.15199,-0.107997 1.656,-0.324 0.50399,-0.215997 0.93599,-0.509997 1.296,-0.882 0.37199,-0.383996 0.65999,-0.839995 0.864,-1.368 0.20399,-0.527994 0.30599,-1.097994 0.306,-1.71 -1e-5,-0.611993 -0.10201,-1.175992 -0.306,-1.692 -0.20401,-0.527991 -0.49201,-0.977991 -0.864,-1.35 -0.36001,-0.37199 -0.79201,-0.65999 -1.296,-0.864 -0.50401,-0.215989 -1.05601,-0.323989 -1.656,-0.324 h -3.186 c -0.588,1.1e-5 -1.134,0.108011 -1.638,0.324 -0.492,0.20401 -0.918,0.49201 -1.278,0.864 -0.36,0.372009 -0.642,0.816009 -0.846,1.332 -0.204,0.516008 -0.306,1.086007 -0.306,1.71 0,0.612006 0.102,1.182006 0.306,1.71 0.204,0.528005 0.486,0.984004 0.846,1.368 0.36,0.372003 0.786,0.666003 1.278,0.882 0.504,0.216003 1.05,0.324002 1.638,0.324 h 3.186"
         id="path3035"
         inkscape:connector-curvature="0"
         style="fill:#000000" />
      <path
         d="m 225.19746,46.881481 v -13.086 h 7.578 c 0.92399,1.3e-5 1.77599,0.156013 2.556,0.468 0.77999,0.312012 1.45199,0.750012 2.016,1.314 0.56399,0.564011 1.00199,1.24201 1.314,2.034 0.32399,0.780009 0.48599,1.644008 0.486,2.592 -1e-5,0.948006 -0.16201,1.830005 -0.486,2.646 -0.31201,0.816003 -0.75001,1.524003 -1.314,2.124 -0.56401,0.588001 -1.23601,1.056001 -2.016,1.404 -0.78001,0.336 -1.63201,0.504 -2.556,0.504 h -7.578 m 7.578,-2.286 c 0.58799,2e-6 1.12799,-0.107997 1.62,-0.324 0.50399,-0.215997 0.93599,-0.509997 1.296,-0.882 0.37199,-0.383996 0.65999,-0.839995 0.864,-1.368 0.20399,-0.527994 0.30599,-1.097994 0.306,-1.71 -1e-5,-0.611993 -0.10201,-1.175992 -0.306,-1.692 -0.20401,-0.527991 -0.49201,-0.977991 -0.864,-1.35 -0.36001,-0.37199 -0.79201,-0.65999 -1.296,-0.864 -0.49201,-0.215989 -1.03201,-0.323989 -1.62,-0.324 h -5.31 v 8.514 h 5.31"
         id="path3037"
         inkscape:connector-curvature="0"
         style="fill:#000000" />
      <path
         d="m 241.01777,46.881481 v -13.086 h 11.682 v 2.286 h -9.414 v 8.514 h 9.432 v 2.286 h -11.7 m 3.942,-5.688 v -1.926 h 7.254 v 1.926 h -7.254"
         id="path3039"
         inkscape:connector-curvature="0"
         style="fill:#000000" />
      <path
         d="m 138.71309,64.881481 v -13.086 h 11.106 v 2.286 h -8.838 v 10.8 h -2.268 m 3.942,-5.418 v -1.998 h 6.624 v 1.998 h -6.624"
         id="path3041"
         inkscape:connector-curvature="0"
         style="fill:#000000" />
      <path
         d="m 151.40449,64.881481 v -13.086 h 11.682 v 2.286 h -9.414 v 8.514 h 9.432 v 2.286 h -11.7 m 3.942,-5.688 v -1.926 h 7.254 v 1.926 h -7.254"
         id="path3043"
         inkscape:connector-curvature="0"
         style="fill:#000000" />
      <path
         d="m 167.20427,55.305481 v 9.576 h -2.178 v -11.88 c 0,-0.419988 0.102,-0.749987 0.306,-0.99 0.216,-0.251987 0.504,-0.377987 0.864,-0.378 0.168,1.3e-5 0.33,0.03601 0.486,0.108 0.156,0.07201 0.318,0.192013 0.486,0.36 l 9.234,9.162 v -9.576 h 2.178 v 11.988 c -1e-5,0.432001 -0.10801,0.768001 -0.324,1.008 -0.20401,0.24 -0.47401,0.36 -0.81,0.36 -0.37201,0 -0.72001,-0.162 -1.044,-0.486 l -9.198,-9.252"
         id="path3045"
         inkscape:connector-curvature="0"
         style="fill:#000000" />
      <path
         d="m 186.73596,64.881481 c -0.912,0 -1.758,-0.168 -2.538,-0.504 -0.768,-0.347999 -1.44,-0.815999 -2.016,-1.404 -0.564,-0.599997 -1.008,-1.307997 -1.332,-2.124 -0.312,-0.815995 -0.468,-1.697994 -0.468,-2.646 0,-0.959992 0.156,-1.835991 0.468,-2.628 0.324,-0.79199 0.768,-1.463989 1.332,-2.016 0.576,-0.563988 1.248,-0.995988 2.016,-1.296 0.78,-0.311987 1.626,-0.467987 2.538,-0.468 h 3.186 c 0.94799,1.3e-5 1.81199,0.156013 2.592,0.468 0.79199,0.312012 1.46999,0.750012 2.034,1.314 0.56399,0.564011 1.00199,1.24201 1.314,2.034 0.31198,0.780009 0.46798,1.644008 0.468,2.592 -2e-5,0.948006 -0.16202,1.830005 -0.486,2.646 -0.31201,0.816003 -0.75601,1.524003 -1.332,2.124 -0.56401,0.588001 -1.23601,1.056001 -2.016,1.404 -0.78001,0.336 -1.63801,0.504 -2.574,0.504 h -3.186 m 3.186,-2.286 c 0.59999,2e-6 1.15199,-0.107997 1.656,-0.324 0.50399,-0.215997 0.93599,-0.509997 1.296,-0.882 0.37199,-0.383996 0.65999,-0.839995 0.864,-1.368 0.20399,-0.527994 0.30599,-1.097994 0.306,-1.71 -1e-5,-0.611993 -0.10201,-1.175992 -0.306,-1.692 -0.20401,-0.527991 -0.49201,-0.977991 -0.864,-1.35 -0.36001,-0.37199 -0.79201,-0.65999 -1.296,-0.864 -0.50401,-0.215989 -1.05601,-0.323989 -1.656,-0.324 h -3.186 c -0.58801,1.1e-5 -1.134,0.108011 -1.638,0.324 -0.492,0.20401 -0.918,0.49201 -1.278,0.864 -0.36,0.372009 -0.642,0.816009 -0.846,1.332 -0.204,0.516008 -0.306,1.086007 -0.306,1.71 0,0.612006 0.102,1.182006 0.306,1.71 0.204,0.528005 0.486,0.984004 0.846,1.368 0.36,0.372003 0.786,0.666003 1.278,0.882 0.504,0.216003 1.04999,0.324002 1.638,0.324 h 3.186"
         id="path3047"
         inkscape:connector-curvature="0"
         style="fill:#000000" />
      <path
         d="m 213.74918,64.881481 -2.502,-9.198 -3.708,8.514 c -0.13201,0.276001 -0.29401,0.492 -0.486,0.648 -0.18001,0.144 -0.40801,0.216 -0.684,0.216 -0.52801,0 -0.91801,-0.288 -1.17,-0.864 l -3.69,-8.514 -2.502,9.198 h -2.25 l 3.366,-12.312 c 0.156,-0.623987 0.534,-0.935987 1.134,-0.936 0.23999,1.3e-5 0.46199,0.06601 0.666,0.198 0.21599,0.132013 0.37799,0.324013 0.486,0.576 l 4.032,9.252 4.032,-9.252 c 0.21599,-0.515987 0.58199,-0.773987 1.098,-0.774 0.55198,1.3e-5 0.91798,0.312013 1.098,0.936 l 3.348,12.312 h -2.268"
         id="path3049"
         inkscape:connector-curvature="0"
         style="fill:#000000" />
      <path
         d="m 217.5334,64.881481 v -13.086 h 11.682 v 2.286 h -9.414 v 8.514 h 9.432 v 2.286 h -11.7 m 3.942,-5.688 v -1.926 h 7.254 v 1.926 h -7.254"
         id="path3051"
         inkscape:connector-curvature="0"
         style="fill:#000000" />
      <path
         d="m 233.33318,55.305481 v 9.576 h -2.178 v -11.88 c 0,-0.419988 0.102,-0.749987 0.306,-0.99 0.216,-0.251987 0.504,-0.377987 0.864,-0.378 0.168,1.3e-5 0.33,0.03601 0.486,0.108 0.156,0.07201 0.318,0.192013 0.486,0.36 l 9.234,9.162 v -9.576 h 2.178 v 11.988 c -1e-5,0.432001 -0.10801,0.768001 -0.324,1.008 -0.20401,0.24 -0.47401,0.36 -0.81,0.36 -0.37201,0 -0.72001,-0.162 -1.044,-0.486 l -9.198,-9.252"
         id="path3053"
         inkscape:connector-curvature="0"
         style="fill:#000000" />
      <path
         d="m 252.86487,64.881481 c -0.91201,0 -1.75801,-0.168 -2.538,-0.504 -0.76801,-0.347999 -1.44001,-0.815999 -2.016,-1.404 -0.564,-0.599997 -1.008,-1.307997 -1.332,-2.124 -0.312,-0.815995 -0.468,-1.697994 -0.468,-2.646 0,-0.959992 0.156,-1.835991 0.468,-2.628 0.324,-0.79199 0.768,-1.463989 1.332,-2.016 0.57599,-0.563988 1.24799,-0.995988 2.016,-1.296 0.77999,-0.311987 1.62599,-0.467987 2.538,-0.468 h 3.186 c 0.94799,1.3e-5 1.81199,0.156013 2.592,0.468 0.79198,0.312012 1.46998,0.750012 2.034,1.314 0.56398,0.564011 1.00198,1.24201 1.314,2.034 0.31198,0.780009 0.46798,1.644008 0.468,2.592 -2e-5,0.948006 -0.16202,1.830005 -0.486,2.646 -0.31202,0.816003 -0.75602,1.524003 -1.332,2.124 -0.56402,0.588001 -1.23602,1.056001 -2.016,1.404 -0.78001,0.336 -1.63801,0.504 -2.574,0.504 h -3.186 m 3.186,-2.286 c 0.59999,2e-6 1.15199,-0.107997 1.656,-0.324 0.50399,-0.215997 0.93598,-0.509997 1.296,-0.882 0.37198,-0.383996 0.65998,-0.839995 0.864,-1.368 0.20398,-0.527994 0.30598,-1.097994 0.306,-1.71 -2e-5,-0.611993 -0.10202,-1.175992 -0.306,-1.692 -0.20402,-0.527991 -0.49202,-0.977991 -0.864,-1.35 -0.36002,-0.37199 -0.79201,-0.65999 -1.296,-0.864 -0.50401,-0.215989 -1.05601,-0.323989 -1.656,-0.324 h -3.186 c -0.58801,1.1e-5 -1.13401,0.108011 -1.638,0.324 -0.49201,0.20401 -0.91801,0.49201 -1.278,0.864 -0.36001,0.372009 -0.64201,0.816009 -0.846,1.332 -0.20401,0.516008 -0.30601,1.086007 -0.306,1.71 -1e-5,0.612006 0.10199,1.182006 0.306,1.71 0.20399,0.528005 0.48599,0.984004 0.846,1.368 0.35999,0.372003 0.78599,0.666003 1.278,0.882 0.50399,0.216003 1.04999,0.324002 1.638,0.324 h 3.186"
         id="path3055"
         inkscape:connector-curvature="0"
         style="fill:#000000" />
      <path
         d="m 264.29121,64.881481 v -13.086 h 2.286 v 10.8 h 8.802 v 2.286 h -11.088"
         id="path3057"
         inkscape:connector-curvature="0"
         style="fill:#000000" />
      <path
         d="m 282.99377,64.881481 c -0.912,0 -1.758,-0.168 -2.538,-0.504 -0.768,-0.347999 -1.44,-0.815999 -2.016,-1.404 -0.564,-0.599997 -1.008,-1.307997 -1.332,-2.124 -0.312,-0.815995 -0.468,-1.697994 -0.468,-2.646 0,-0.959992 0.156,-1.835991 0.468,-2.628 0.324,-0.79199 0.768,-1.463989 1.332,-2.016 0.576,-0.563988 1.248,-0.995988 2.016,-1.296 0.78,-0.311987 1.626,-0.467987 2.538,-0.468 h 3.186 c 0.94799,1.3e-5 1.81199,0.156013 2.592,0.468 0.79199,0.312012 1.46999,0.750012 2.034,1.314 0.56399,0.564011 1.00199,1.24201 1.314,2.034 0.31199,0.780009 0.46799,1.644008 0.468,2.592 -10e-6,0.948006 -0.16201,1.830005 -0.486,2.646 -0.31201,0.816003 -0.75601,1.524003 -1.332,2.124 -0.56401,0.588001 -1.23601,1.056001 -2.016,1.404 -0.78001,0.336 -1.63801,0.504 -2.574,0.504 h -3.186 m 3.186,-2.286 c 0.59999,2e-6 1.15199,-0.107997 1.656,-0.324 0.50399,-0.215997 0.93599,-0.509997 1.296,-0.882 0.37199,-0.383996 0.65999,-0.839995 0.864,-1.368 0.20399,-0.527994 0.30599,-1.097994 0.306,-1.71 -10e-6,-0.611993 -0.10201,-1.175992 -0.306,-1.692 -0.20401,-0.527991 -0.49201,-0.977991 -0.864,-1.35 -0.36001,-0.37199 -0.79201,-0.65999 -1.296,-0.864 -0.50401,-0.215989 -1.05601,-0.323989 -1.656,-0.324 h -3.186 c -0.588,1.1e-5 -1.134,0.108011 -1.638,0.324 -0.492,0.20401 -0.918,0.49201 -1.278,0.864 -0.36,0.372009 -0.642,0.816009 -0.846,1.332 -0.204,0.516008 -0.306,1.086007 -0.306,1.71 0,0.612006 0.102,1.182006 0.306,1.71 0.204,0.528005 0.486,0.984004 0.846,1.368 0.36,0.372003 0.786,0.666003 1.278,0.882 0.504,0.216003 1.05,0.324002 1.638,0.324 h 3.186"
         id="path3059"
         inkscape:connector-curvature="0"
         style="fill:#000000" />
      <path
         d="m 300.39612,64.881481 c -0.91201,0 -1.75801,-0.168 -2.538,-0.504 -0.76801,-0.347999 -1.44001,-0.815999 -2.016,-1.404 -0.564,-0.599997 -1.008,-1.307997 -1.332,-2.124 -0.312,-0.815995 -0.468,-1.697994 -0.468,-2.646 0,-0.959992 0.156,-1.835991 0.468,-2.628 0.324,-0.79199 0.768,-1.463989 1.332,-2.016 0.57599,-0.563988 1.24799,-0.995988 2.016,-1.296 0.77999,-0.311987 1.62599,-0.467987 2.538,-0.468 h 7.092 v 2.286 h -7.092 c -0.58801,1.1e-5 -1.13401,0.108011 -1.638,0.324 -0.49201,0.20401 -0.91801,0.49201 -1.278,0.864 -0.36001,0.372009 -0.64201,0.816009 -0.846,1.332 -0.20401,0.516008 -0.30601,1.086007 -0.306,1.71 -1e-5,0.612006 0.10199,1.182006 0.306,1.71 0.20399,0.528005 0.48599,0.984004 0.846,1.368 0.35999,0.372003 0.78599,0.666003 1.278,0.882 0.50399,0.216003 1.04999,0.324002 1.638,0.324 h 5.598 v -3.402 h -5.904 v -1.926 h 8.208 v 7.614 h -7.902"
         id="path3061"
         inkscape:connector-curvature="0"
         style="fill:#000000" />
      <path
         d="m 310.50706,64.881481 v -13.086 h 2.286 v 13.086 h -2.286 m -0.594,-13.896 v -1.026 l 4.608,-1.386 v 1.422 l -4.608,0.99"
         id="path3063"
         inkscape:connector-curvature="0"
         style="fill:#000000" />
      <path
         d="m 328.84146,64.881481 -1.962,-3.294 h -6.192 l 1.08,-1.854 h 4.014 l -2.916,-4.896 -5.94,10.044 h -2.61 l 7.524,-12.528 c 0.13199,-0.227987 0.28799,-0.407987 0.468,-0.54 0.17999,-0.131987 0.39599,-0.197987 0.648,-0.198 0.25199,1.3e-5 0.46199,0.06601 0.63,0.198 0.17999,0.132013 0.33599,0.312013 0.468,0.54 l 7.542,12.528 h -2.754"
         id="path3065"
         inkscape:connector-curvature="0"
         style="fill:#000000" />
      <path
         d="m 338.29512,64.881481 v -13.086 h 7.578 c 0.92399,1.3e-5 1.77599,0.156013 2.556,0.468 0.77999,0.312012 1.45198,0.750012 2.016,1.314 0.56398,0.564011 1.00198,1.24201 1.314,2.034 0.32398,0.780009 0.48598,1.644008 0.486,2.592 -2e-5,0.948006 -0.16202,1.830005 -0.486,2.646 -0.31202,0.816003 -0.75002,1.524003 -1.314,2.124 -0.56402,0.588001 -1.23601,1.056001 -2.016,1.404 -0.78001,0.336 -1.63201,0.504 -2.556,0.504 h -7.578 m 7.578,-2.286 c 0.58799,2e-6 1.12799,-0.107997 1.62,-0.324 0.50399,-0.215997 0.93599,-0.509997 1.296,-0.882 0.37199,-0.383996 0.65999,-0.839995 0.864,-1.368 0.20398,-0.527994 0.30598,-1.097994 0.306,-1.71 -2e-5,-0.611993 -0.10202,-1.175992 -0.306,-1.692 -0.20401,-0.527991 -0.49201,-0.977991 -0.864,-1.35 -0.36001,-0.37199 -0.79201,-0.65999 -1.296,-0.864 -0.49201,-0.215989 -1.03201,-0.323989 -1.62,-0.324 h -5.31 v 8.514 h 5.31"
         id="path3067"
         inkscape:connector-curvature="0"
         style="fill:#000000" />
      <path
         d="m 354.11543,64.881481 v -13.086 h 11.682 v 2.286 h -9.414 v 8.514 h 9.432 v 2.286 h -11.7 m 3.942,-5.688 v -1.926 h 7.254 v 1.926 h -7.254"
         id="path3069"
         inkscape:connector-curvature="0"
         style="fill:#000000" />
      <path
         d="m 373.22581,64.881481 v -13.086 h 2.286 v 13.086 h -2.286"
         id="path3071"
         inkscape:connector-curvature="0"
         style="fill:#000000" />
      <path
         d="m 380.04021,55.305481 v 9.576 h -2.178 v -11.88 c 0,-0.419988 0.102,-0.749987 0.306,-0.99 0.216,-0.251987 0.504,-0.377987 0.864,-0.378 0.168,1.3e-5 0.33,0.03601 0.486,0.108 0.156,0.07201 0.318,0.192013 0.486,0.36 l 9.234,9.162 v -9.576 h 2.178 v 11.988 c -10e-6,0.432001 -0.10801,0.768001 -0.324,1.008 -0.20401,0.24 -0.47401,0.36 -0.81,0.36 -0.37201,0 -0.72001,-0.162 -1.044,-0.486 l -9.198,-9.252"
         id="path3073"
         inkscape:connector-curvature="0"
         style="fill:#000000" />
      <path
         d="m 397.7899,64.881481 v -10.8 h -4.968 v -2.286 h 12.222 v 2.286 h -4.968 v 10.8 h -2.286"
         id="path3075"
         inkscape:connector-curvature="0"
         style="fill:#000000" />
      <path
         d="m 406.56856,64.881481 v -13.086 h 11.682 v 2.286 h -9.414 v 8.514 h 9.432 v 2.286 h -11.7 m 3.942,-5.688 v -1.926 h 7.254 v 1.926 h -7.254"
         id="path3077"
         inkscape:connector-curvature="0"
         style="fill:#000000" />
      <path
         d="m 432.39434,64.881481 -3.312,-3.636 h -4.896 v -2.016 h 5.454 c 0.82798,6e-6 1.45198,-0.221994 1.872,-0.666 0.41998,-0.443993 0.62998,-1.097992 0.63,-1.962 -2e-5,-0.863991 -0.22202,-1.49999 -0.666,-1.908 -0.43202,-0.407989 -1.04402,-0.611989 -1.836,-0.612 h -7.128 v 10.8 h -2.268 v -13.086 h 9.396 c 0.74399,1.3e-5 1.40998,0.114013 1.998,0.342 0.58798,0.216013 1.08598,0.534012 1.494,0.954 0.40798,0.408012 0.71998,0.906011 0.936,1.494 0.21598,0.58801 0.32398,1.248009 0.324,1.98 -2e-5,1.092007 -0.23402,2.010006 -0.702,2.754 -0.46802,0.732005 -1.13402,1.260004 -1.998,1.584 l 3.942,3.978 h -3.24"
         id="path3079"
         inkscape:connector-curvature="0"
         style="fill:#000000" />
      <path
         d="m 450.51724,64.881481 -1.962,-3.294 h -6.192 l 1.08,-1.854 h 4.014 l -2.916,-4.896 -5.94,10.044 h -2.61 l 7.524,-12.528 c 0.13199,-0.227987 0.28799,-0.407987 0.468,-0.54 0.17999,-0.131987 0.39599,-0.197987 0.648,-0.198 0.25199,1.3e-5 0.46199,0.06601 0.63,0.198 0.17999,0.132013 0.33599,0.312013 0.468,0.54 l 7.542,12.528 h -2.754"
         id="path3081"
         inkscape:connector-curvature="0"
         style="fill:#000000" />
      <path
         d="m 458.88049,64.881481 c -0.912,0 -1.758,-0.168 -2.538,-0.504 -0.768,-0.347999 -1.44,-0.815999 -2.016,-1.404 -0.564,-0.599997 -1.008,-1.307997 -1.332,-2.124 -0.312,-0.815995 -0.468,-1.697994 -0.468,-2.646 0,-0.959992 0.156,-1.835991 0.468,-2.628 0.324,-0.79199 0.768,-1.463989 1.332,-2.016 0.576,-0.563988 1.248,-0.995988 2.016,-1.296 0.78,-0.311987 1.626,-0.467987 2.538,-0.468 h 7.092 v 2.286 h -7.092 c -0.588,1.1e-5 -1.134,0.108011 -1.638,0.324 -0.492,0.20401 -0.918,0.49201 -1.278,0.864 -0.36,0.372009 -0.642,0.816009 -0.846,1.332 -0.204,0.516008 -0.306,1.086007 -0.306,1.71 0,0.612006 0.102,1.182006 0.306,1.71 0.204,0.528005 0.486,0.984004 0.846,1.368 0.36,0.372003 0.786,0.666003 1.278,0.882 0.504,0.216003 1.05,0.324002 1.638,0.324 h 7.092 v 2.286 h -7.092"
         id="path3083"
         inkscape:connector-curvature="0"
         style="fill:#000000" />
      <path
         d="m 473.78674,64.881481 c -0.912,0 -1.758,-0.168 -2.538,-0.504 -0.768,-0.347999 -1.44,-0.815999 -2.016,-1.404 -0.564,-0.599997 -1.008,-1.307997 -1.332,-2.124 -0.312,-0.815995 -0.468,-1.697994 -0.468,-2.646 0,-0.959992 0.156,-1.835991 0.468,-2.628 0.324,-0.79199 0.768,-1.463989 1.332,-2.016 0.576,-0.563988 1.248,-0.995988 2.016,-1.296 0.78,-0.311987 1.626,-0.467987 2.538,-0.468 h 7.092 v 2.286 h -7.092 c -0.588,1.1e-5 -1.134,0.108011 -1.638,0.324 -0.492,0.20401 -0.918,0.49201 -1.278,0.864 -0.36,0.372009 -0.642,0.816009 -0.846,1.332 -0.204,0.516008 -0.306,1.086007 -0.306,1.71 0,0.612006 0.102,1.182006 0.306,1.71 0.204,0.528005 0.486,0.984004 0.846,1.368 0.36,0.372003 0.786,0.666003 1.278,0.882 0.504,0.216003 1.05,0.324002 1.638,0.324 h 7.092 v 2.286 h -7.092"
         id="path3085"
         inkscape:connector-curvature="0"
         style="fill:#000000" />
      <path
         d="m 482.84299,64.881481 v -13.086 h 2.286 v 13.086 h -2.286"
         id="path3087"
         inkscape:connector-curvature="0"
         style="fill:#000000" />
      <path
         d="m 493.5094,64.881481 c -0.91201,0 -1.75801,-0.168 -2.538,-0.504 -0.76801,-0.347999 -1.44,-0.815999 -2.016,-1.404 -0.564,-0.599997 -1.008,-1.307997 -1.332,-2.124 -0.312,-0.815995 -0.468,-1.697994 -0.468,-2.646 0,-0.959992 0.156,-1.835991 0.468,-2.628 0.324,-0.79199 0.768,-1.463989 1.332,-2.016 0.576,-0.563988 1.24799,-0.995988 2.016,-1.296 0.77999,-0.311987 1.62599,-0.467987 2.538,-0.468 h 3.186 c 0.94799,1.3e-5 1.81199,0.156013 2.592,0.468 0.79199,0.312012 1.46998,0.750012 2.034,1.314 0.56398,0.564011 1.00198,1.24201 1.314,2.034 0.31198,0.780009 0.46798,1.644008 0.468,2.592 -2e-5,0.948006 -0.16202,1.830005 -0.486,2.646 -0.31202,0.816003 -0.75602,1.524003 -1.332,2.124 -0.56402,0.588001 -1.23601,1.056001 -2.016,1.404 -0.78001,0.336 -1.63801,0.504 -2.574,0.504 h -3.186 m 3.186,-2.286 c 0.59999,2e-6 1.15199,-0.107997 1.656,-0.324 0.50399,-0.215997 0.93599,-0.509997 1.296,-0.882 0.37199,-0.383996 0.65998,-0.839995 0.864,-1.368 0.20398,-0.527994 0.30598,-1.097994 0.306,-1.71 -2e-5,-0.611993 -0.10202,-1.175992 -0.306,-1.692 -0.20402,-0.527991 -0.49201,-0.977991 -0.864,-1.35 -0.36001,-0.37199 -0.79201,-0.65999 -1.296,-0.864 -0.50401,-0.215989 -1.05601,-0.323989 -1.656,-0.324 h -3.186 c -0.58801,1.1e-5 -1.13401,0.108011 -1.638,0.324 -0.49201,0.20401 -0.91801,0.49201 -1.278,0.864 -0.36001,0.372009 -0.642,0.816009 -0.846,1.332 -0.204,0.516008 -0.306,1.086007 -0.306,1.71 0,0.612006 0.102,1.182006 0.306,1.71 0.204,0.528005 0.48599,0.984004 0.846,1.368 0.35999,0.372003 0.78599,0.666003 1.278,0.882 0.50399,0.216003 1.04999,0.324002 1.638,0.324 h 3.186"
         id="path3089"
         inkscape:connector-curvature="0"
         style="fill:#000000" />
      <path
         d="m 507.05974,55.305481 v 9.576 h -2.178 v -11.88 c 0,-0.419988 0.102,-0.749987 0.306,-0.99 0.216,-0.251987 0.504,-0.377987 0.864,-0.378 0.168,1.3e-5 0.33,0.03601 0.486,0.108 0.156,0.07201 0.318,0.192013 0.486,0.36 l 9.234,9.162 v -9.576 h 2.178 v 11.988 c -10e-6,0.432001 -0.10801,0.768001 -0.324,1.008 -0.20401,0.24 -0.47401,0.36 -0.81,0.36 -0.37201,0 -0.72001,-0.162 -1.044,-0.486 l -9.198,-9.252"
         id="path3091"
         inkscape:connector-curvature="0"
         style="fill:#000000" />
      <path
         d="m 520.61543,64.881481 v -13.086 h 11.682 v 2.286 h -9.414 v 8.514 h 9.432 v 2.286 h -11.7 m 3.942,-5.688 v -1.926 h 7.254 v 1.926 h -7.254"
         id="path3093"
         inkscape:connector-curvature="0"
         style="fill:#000000" />
      <path
         d="m 534.29121,64.881481 v -2.286 h 9.81 c 0.61199,2e-6 1.07999,-0.155997 1.404,-0.468 0.33599,-0.311997 0.50399,-0.725996 0.504,-1.242 -1e-5,-0.575995 -0.16801,-1.001995 -0.504,-1.278 -0.32401,-0.275994 -0.79201,-0.413994 -1.404,-0.414 h -6.012 c -0.612,6e-6 -1.17,-0.08999 -1.674,-0.27 -0.492,-0.191994 -0.912,-0.449993 -1.26,-0.774 -0.336,-0.335993 -0.6,-0.731992 -0.792,-1.188 -0.18,-0.455991 -0.27,-0.953991 -0.27,-1.494 0,-0.52799 0.084,-1.013989 0.252,-1.458 0.18,-0.455989 0.438,-0.845988 0.774,-1.17 0.348,-0.323987 0.774,-0.575987 1.278,-0.756 0.504,-0.191987 1.08,-0.287987 1.728,-0.288 h 9.396 v 2.286 h -9.396 c -0.54,1.1e-5 -0.954,0.144011 -1.242,0.432 -0.276,0.27601 -0.414,0.66601 -0.414,1.17 0,0.504009 0.144,0.894008 0.432,1.17 0.3,0.276008 0.702,0.414008 1.206,0.414 h 5.994 c 1.34399,8e-6 2.35799,0.312007 3.042,0.936 0.68399,0.624006 1.02599,1.572005 1.026,2.844 -10e-6,0.552003 -0.084,1.062003 -0.252,1.53 -0.16801,0.468002 -0.42001,0.876002 -0.756,1.224 -0.33601,0.336001 -0.76201,0.600001 -1.278,0.792 -0.50401,0.192 -1.09801,0.288 -1.782,0.288 h -9.81"
         id="path3095"
         inkscape:connector-curvature="0"
         style="fill:#000000" />
      <path
         d="m 555.45527,64.881481 v -13.086 h 11.106 v 2.286 h -8.838 v 10.8 h -2.268 m 3.942,-5.418 v -1.998 h 6.624 v 1.998 h -6.624"
         id="path3097"
         inkscape:connector-curvature="0"
         style="fill:#000000" />
      <path
         d="m 579.84668,51.795481 h 2.232 v 7.308 c -2e-5,1.008005 -0.13201,1.890004 -0.396,2.646 -0.26401,0.744003 -0.67801,1.362002 -1.242,1.854 -0.56401,0.492001 -1.29601,0.858001 -2.196,1.098 -0.88801,0.24 -1.96801,0.36 -3.24,0.36 -1.26001,0 -2.34001,-0.12 -3.24,-0.36 -0.888,-0.239999 -1.614,-0.605999 -2.178,-1.098 -0.564,-0.491998 -0.978,-1.109997 -1.242,-1.854 -0.264,-0.755996 -0.396,-1.637995 -0.396,-2.646 v -7.308 h 2.358 v 7.308 c 0,0.660005 0.078,1.224005 0.234,1.692 0.168,0.468004 0.432,0.852003 0.792,1.152 0.372,0.300003 0.86399,0.522003 1.476,0.666 0.61199,0.132002 1.36799,0.198002 2.268,0.198 0.89999,2e-6 1.65599,-0.066 2.268,-0.198 0.61199,-0.143997 1.09799,-0.365997 1.458,-0.666 0.37199,-0.299997 0.63599,-0.683996 0.792,-1.152 0.16799,-0.467995 0.25199,-1.031995 0.252,-1.692 v -7.308"
         id="path3099"
         inkscape:connector-curvature="0"
         style="fill:#000000" />
      <path
         d="m 586.26677,55.305481 v 9.576 h -2.178 v -11.88 c 0,-0.419988 0.102,-0.749987 0.306,-0.99 0.216,-0.251987 0.504,-0.377987 0.864,-0.378 0.168,1.3e-5 0.33,0.03601 0.486,0.108 0.156,0.07201 0.318,0.192013 0.486,0.36 l 9.234,9.162 v -9.576 h 2.178 v 11.988 c -1e-5,0.432001 -0.10801,0.768001 -0.324,1.008 -0.20401,0.24 -0.47401,0.36 -0.81,0.36 -0.37201,0 -0.72001,-0.162 -1.044,-0.486 l -9.198,-9.252"
         id="path3101"
         inkscape:connector-curvature="0"
         style="fill:#000000" />
      <path
         d="m 599.82246,64.881481 v -13.086 h 7.578 c 0.92399,1.3e-5 1.77599,0.156013 2.556,0.468 0.77999,0.312012 1.45199,0.750012 2.016,1.314 0.56399,0.564011 1.00199,1.24201 1.314,2.034 0.32399,0.780009 0.48599,1.644008 0.486,2.592 -10e-6,0.948006 -0.16201,1.830005 -0.486,2.646 -0.31201,0.816003 -0.75001,1.524003 -1.314,2.124 -0.56401,0.588001 -1.23601,1.056001 -2.016,1.404 -0.78001,0.336 -1.63201,0.504 -2.556,0.504 h -7.578 m 7.578,-2.286 c 0.58799,2e-6 1.12799,-0.107997 1.62,-0.324 0.50399,-0.215997 0.93599,-0.509997 1.296,-0.882 0.37199,-0.383996 0.65999,-0.839995 0.864,-1.368 0.20399,-0.527994 0.30599,-1.097994 0.306,-1.71 -10e-6,-0.611993 -0.10201,-1.175992 -0.306,-1.692 -0.20401,-0.527991 -0.49201,-0.977991 -0.864,-1.35 -0.36001,-0.37199 -0.79201,-0.65999 -1.296,-0.864 -0.49201,-0.215989 -1.03201,-0.323989 -1.62,-0.324 h -5.31 v 8.514 h 5.31"
         id="path3103"
         inkscape:connector-curvature="0"
         style="fill:#000000" />
      <path
         d="m 627.52896,64.881481 -1.962,-3.294 h -6.192 l 1.08,-1.854 h 4.014 l -2.916,-4.896 -5.94,10.044 h -2.61 l 7.524,-12.528 c 0.13199,-0.227987 0.28799,-0.407987 0.468,-0.54 0.17999,-0.131987 0.39599,-0.197987 0.648,-0.198 0.25199,1.3e-5 0.46199,0.06601 0.63,0.198 0.17999,0.132013 0.33599,0.312013 0.468,0.54 l 7.542,12.528 h -2.754"
         id="path3105"
         inkscape:connector-curvature="0"
         style="fill:#000000" />
      <path
         d="m 647.96402,64.881481 -2.502,-9.198 -3.708,8.514 c -0.13201,0.276001 -0.29401,0.492 -0.486,0.648 -0.18001,0.144 -0.40801,0.216 -0.684,0.216 -0.52801,0 -0.91801,-0.288 -1.17,-0.864 l -3.69,-8.514 -2.502,9.198 h -2.25 l 3.366,-12.312 c 0.156,-0.623987 0.534,-0.935987 1.134,-0.936 0.24,1.3e-5 0.462,0.06601 0.666,0.198 0.216,0.132013 0.378,0.324013 0.486,0.576 l 4.032,9.252 4.032,-9.252 c 0.21599,-0.515987 0.58199,-0.773987 1.098,-0.774 0.55199,1.3e-5 0.91799,0.312013 1.098,0.936 l 3.348,12.312 h -2.268"
         id="path3107"
         inkscape:connector-curvature="0"
         style="fill:#000000" />
      <path
         d="m 651.74824,64.881481 v -13.086 h 11.682 v 2.286 h -9.414 v 8.514 h 9.432 v 2.286 h -11.7 m 3.942,-5.688 v -1.926 h 7.254 v 1.926 h -7.254"
         id="path3109"
         inkscape:connector-curvature="0"
         style="fill:#000000" />
      <path
         d="m 667.54802,55.305481 v 9.576 h -2.178 v -11.88 c 0,-0.419988 0.102,-0.749987 0.306,-0.99 0.216,-0.251987 0.504,-0.377987 0.864,-0.378 0.168,1.3e-5 0.33,0.03601 0.486,0.108 0.156,0.07201 0.318,0.192013 0.486,0.36 l 9.234,9.162 v -9.576 h 2.178 v 11.988 c -1e-5,0.432001 -0.10801,0.768001 -0.324,1.008 -0.20401,0.24 -0.47401,0.36 -0.81,0.36 -0.37201,0 -0.72001,-0.162 -1.044,-0.486 l -9.198,-9.252"
         id="path3111"
         inkscape:connector-curvature="0"
         style="fill:#000000" />
      <path
         d="m 685.29771,64.881481 v -10.8 h -4.968 v -2.286 h 12.222 v 2.286 h -4.968 v 10.8 h -2.286"
         id="path3113"
         inkscape:connector-curvature="0"
         style="fill:#000000" />
      <path
         d="m 705.25943,64.881481 -1.962,-3.294 h -6.192 l 1.08,-1.854 h 4.014 l -2.916,-4.896 -5.94,10.044 h -2.61 l 7.524,-12.528 c 0.13199,-0.227987 0.28799,-0.407987 0.468,-0.54 0.17999,-0.131987 0.39599,-0.197987 0.648,-0.198 0.25199,1.3e-5 0.46199,0.06601 0.63,0.198 0.17999,0.132013 0.33599,0.312013 0.468,0.54 l 7.542,12.528 h -2.754"
         id="path3115"
         inkscape:connector-curvature="0"
         style="fill:#000000" />
      <path
         d="m 709.40449,64.881481 v -13.086 h 2.286 v 10.8 h 8.802 v 2.286 h -11.088"
         id="path3117"
         inkscape:connector-curvature="0"
         style="fill:#000000" />
      <path
         d="m 722.13106,64.881481 v -13.086 h 11.682 v 2.286 h -9.414 v 8.514 h 9.432 v 2.286 h -11.7 m 3.942,-5.688 v -1.926 h 7.254 v 1.926 h -7.254"
         id="path3119"
         inkscape:connector-curvature="0"
         style="fill:#000000" />
      <path
         d="m 735.80684,64.881481 v -2.286 h 9.81 c 0.61198,2e-6 1.07998,-0.155997 1.404,-0.468 0.33598,-0.311997 0.50398,-0.725996 0.504,-1.242 -2e-5,-0.575995 -0.16802,-1.001995 -0.504,-1.278 -0.32402,-0.275994 -0.79202,-0.413994 -1.404,-0.414 h -6.012 c -0.61201,6e-6 -1.17001,-0.08999 -1.674,-0.27 -0.49201,-0.191994 -0.91201,-0.449993 -1.26,-0.774 -0.33601,-0.335993 -0.60001,-0.731992 -0.792,-1.188 -0.18,-0.455991 -0.27,-0.953991 -0.27,-1.494 0,-0.52799 0.084,-1.013989 0.252,-1.458 0.17999,-0.455989 0.43799,-0.845988 0.774,-1.17 0.34799,-0.323987 0.77399,-0.575987 1.278,-0.756 0.50399,-0.191987 1.07999,-0.287987 1.728,-0.288 h 9.396 v 2.286 h -9.396 c -0.54001,1.1e-5 -0.95401,0.144011 -1.242,0.432 -0.27601,0.27601 -0.41401,0.66601 -0.414,1.17 -10e-6,0.504009 0.14399,0.894008 0.432,1.17 0.29999,0.276008 0.70199,0.414008 1.206,0.414 h 5.994 c 1.34398,8e-6 2.35798,0.312007 3.042,0.936 0.68398,0.624006 1.02598,1.572005 1.026,2.844 -2e-5,0.552003 -0.084,1.062003 -0.252,1.53 -0.16802,0.468002 -0.42002,0.876002 -0.756,1.224 -0.33602,0.336001 -0.76202,0.600001 -1.278,0.792 -0.50402,0.192 -1.09802,0.288 -1.782,0.288 h -9.81"
         id="path3121"
         inkscape:connector-curvature="0"
         style="fill:#000000" />
    </g>
  </g>
</svg>
