<?xml version="1.0" encoding="UTF-8" standalone="no"?>
<!-- Created with Inkscape (http://www.inkscape.org/) -->

<svg
   xmlns:dc="http://purl.org/dc/elements/1.1/"
   xmlns:cc="http://creativecommons.org/ns#"
   xmlns:rdf="http://www.w3.org/1999/02/22-rdf-syntax-ns#"
   xmlns:svg="http://www.w3.org/2000/svg"
   xmlns="http://www.w3.org/2000/svg"
   xmlns:sodipodi="http://sodipodi.sourceforge.net/DTD/sodipodi-0.dtd"
   xmlns:inkscape="http://www.inkscape.org/namespaces/inkscape"
   width="81.421623"
   height="70.862854"
   id="svg3033"
   version="1.1"
   inkscape:version="0.48.4 r9939"
   sodipodi:docname="onlylogo_path.svg">
  <defs
     id="defs3035" />
  <sodipodi:namedview
     id="base"
     pagecolor="#ffffff"
     bordercolor="#666666"
     borderopacity="1.0"
     inkscape:pageopacity="0.0"
     inkscape:pageshadow="2"
     inkscape:zoom="1.5527835"
     inkscape:cx="64.731049"
     inkscape:cy="35.431419"
     inkscape:document-units="px"
     inkscape:current-layer="layer1"
     showgrid="false"
     fit-margin-top="0"
     fit-margin-left="0"
     fit-margin-right="0"
     fit-margin-bottom="0"
     inkscape:window-width="1920"
     inkscape:window-height="1032"
     inkscape:window-x="0"
     inkscape:window-y="24"
     inkscape:window-maximized="1" />
  <metadata
     id="metadata3038">
    <rdf:RDF>
      <cc:Work
         rdf:about="">
        <dc:format>image/svg+xml</dc:format>
        <dc:type
           rdf:resource="http://purl.org/dc/dcmitype/StillImage" />
        <dc:title></dc:title>
      </cc:Work>
    </rdf:RDF>
  </metadata>
  <g
     inkscape:label="Layer 1"
     inkscape:groupmode="layer"
     id="layer1"
     transform="translate(66.40625,-448.2934)"
     style="display:inline">
    <rect
       style="fill:#8cacbb;fill-opacity:1;fill-rule:nonzero;stroke:none;stroke-width:1;marker:none;visibility:visible;display:inline;overflow:visible;enable-background:accumulate"
       id="rect3189"
       width="81.389046"
       height="70.575066"
       x="-66.373672"
       y="448.2934" />
    <path
       style="fill:none;stroke:#ff0000;stroke-width:1px;stroke-linecap:butt;stroke-linejoin:miter;stroke-opacity:1;display:inline"
       d="m -27.419451,485.22522 c 10.55221,12.98621 22.3096703,23.19107 34.5770403,33.535"
       id="path3216"
       sodipodi:nodetypes="cc"
       inkscape:connector-curvature="0" />
    <path
       sodipodi:nodetypes="cc"
       id="path3218"
       d="m -27.419451,485.22522 c -4.69436,18.85957 -6.22147,22.71741 -9.28371,33.62973"
       style="fill:none;stroke:#ff0000;stroke-width:1px;stroke-linecap:butt;stroke-linejoin:miter;stroke-opacity:1;display:inline"
       inkscape:connector-curvature="0" />
    <path
       sodipodi:nodetypes="cc"
       id="path3240"
       d="M -27.419451,485.22522 C -5.4047107,476.51788 5.3106993,465.3134 14.641389,460.12134"
       style="fill:none;stroke:#ffff00;stroke-width:1px;stroke-linecap:butt;stroke-linejoin:miter;stroke-opacity:1;display:inline"
       inkscape:connector-curvature="0" />
    <path
       style="fill:none;stroke:#0000ff;stroke-width:0.5;stroke-linecap:butt;stroke-linejoin:miter;stroke-miterlimit:4;stroke-opacity:1;stroke-dasharray:none;display:inline"
       d="M -27.419451,485.22522 C -5.4047107,476.51788 5.3106993,465.3134 14.641389,460.12134"
       id="path3242"
       sodipodi:nodetypes="cc"
       inkscape:connector-curvature="0" />
    <path
       sodipodi:nodetypes="cc"
       id="path3246"
       d="M -27.419451,485.22522 C -5.4047107,476.51788 5.3106993,465.3134 14.641389,460.12134"
       style="fill:none;stroke:#0000ff;stroke-width:0.5;stroke-linecap:butt;stroke-linejoin:miter;stroke-miterlimit:4;stroke-opacity:1;stroke-dasharray:none;display:inline"
       inkscape:connector-curvature="0" />
    <path
       sodipodi:nodetypes="cccc"
       id="path3248"
       d="m -27.419451,485.22522 c -12.45999,-22.52284 -22.01555,-25.17192 -28.91205,-22.34195 -17.18433,10.74604 -8.76926,39.95993 6.46803,37.91106 9.83416,0.72104 18.71567,-12.72358 21.87724,-15.15837"
       style="fill:none;stroke:#ffff00;stroke-width:1px;stroke-linecap:butt;stroke-linejoin:miter;stroke-opacity:1;display:inline"
       inkscape:connector-curvature="0" />
    <path
       style="fill:none;stroke:#5e2691;stroke-width:0.5;stroke-linecap:butt;stroke-linejoin:miter;stroke-miterlimit:4;stroke-opacity:1;stroke-dasharray:none;display:inline"
       d="m -27.419451,485.22522 c -12.45999,-22.52284 -22.01555,-25.17192 -28.91205,-22.34195 -17.18433,10.74604 -8.76926,39.95993 6.46803,37.91106 9.83416,0.72104 18.71567,-12.72358 21.87724,-15.15837"
       id="path3250"
       sodipodi:nodetypes="cccc"
       inkscape:connector-curvature="0" />
    <path
       style="fill:none;stroke:#ffff00;stroke-width:1;stroke-linecap:butt;stroke-linejoin:miter;stroke-miterlimit:4;stroke-opacity:1;stroke-dasharray:none;display:inline"
       d="m -27.419451,485.22522 c -13.888548,2.37627 -31.782091,0.83441 -38.65051,-4.92604"
       id="path3281"
       sodipodi:nodetypes="cc"
       inkscape:connector-curvature="0" />
    <path
       sodipodi:nodetypes="cc"
       id="path3283"
       d="m -27.419451,485.22522 c -13.888548,2.37627 -31.782091,0.83441 -38.65051,-4.92604"
       style="fill:none;stroke:#0000ff;stroke-width:0.5;stroke-linecap:butt;stroke-linejoin:miter;stroke-miterlimit:4;stroke-opacity:1;stroke-dasharray:none;display:inline"
       inkscape:connector-curvature="0" />
    <g
       style="display:inline;fill:#000000"
       id="g3176"
       transform="translate(117.54161,323.55034)">
      <g
         transform="scale(-1,1)"
         style="font-size:40px;font-style:normal;font-variant:normal;font-weight:normal;font-stretch:normal;text-align:start;line-height:100%;writing-mode:lr-tb;text-anchor:start;fill:#000000;fill-opacity:1;stroke:none;font-family:Good Times;-inkscape-font-specification:Good Times"
         id="text2388">
        <path
           d="m 110.95782,191.9465 0,-29.08 24.68,0 0,5.08 -19.64,0 0,24 -5.04,0 m 8.76,-12.04 0,-4.44 14.72,0 0,4.44 -14.72,0"
           style="fill:#000000"
           id="path3284" />
      </g>
      <g
         id="g3170"
         style="fill:#000000">
        <g
           style="font-size:40px;font-style:normal;font-variant:normal;font-weight:normal;font-stretch:normal;text-align:start;line-height:100%;writing-mode:lr-tb;text-anchor:start;fill:#000000;fill-opacity:1;stroke:none;font-family:Good Times;-inkscape-font-specification:Good Times"
           id="text2384">
          <path
             d="m -175.48371,191.14233 0,-29.08 24.68,0 0,5.08 -19.64,0 0,24 -5.04,0 m 8.76,-12.04 0,-4.44 14.72,0 0,4.44 -14.72,0"
             style="fill:#000000"
             id="path3287" />
          <path
             d="m -147.00058,191.14233 0,-29.08 5.08,0 0,29.08 -5.08,0"
             style="fill:#000000"
             id="path3289" />
        </g>
        <g
           transform="matrix(0,1,-1,0,0,0)"
           style="font-size:40px;font-style:normal;font-variant:normal;font-weight:normal;font-stretch:normal;text-align:start;line-height:100%;writing-mode:lr-tb;text-anchor:start;fill:#000000;fill-opacity:1;stroke:none;font-family:Good Times;-inkscape-font-specification:Good Times"
           id="text2392">
          <path
             d="m 141.99467,158.02046 c -2.02668,0 -3.90668,-0.37333 -5.64,-1.12 -1.70667,-0.77333 -3.20001,-1.81333 -4.48,-3.12 -1.25334,-1.33333 -2.24,-2.90666 -2.96,-4.72 -0.69333,-1.81332 -1.04,-3.77332 -1.04,-5.88 0,-2.13331 0.34667,-4.07998 1.04,-5.84 0.72,-1.75998 1.70666,-3.25331 2.96,-4.48 1.27999,-1.2533 2.77333,-2.2133 4.48,-2.88 1.73332,-0.6933 3.61332,-1.03997 5.64,-1.04 l 15.76,0 0,5.08 -15.76,0 c -1.30668,3e-5 -2.52001,0.24003 -3.64,0.72 -1.09334,0.45336 -2.04001,1.09336 -2.84,1.92 -0.80001,0.82669 -1.42667,1.81335 -1.88,2.96 -0.45334,1.14669 -0.68001,2.41335 -0.68,3.8 -1e-5,1.36002 0.22666,2.62668 0.68,3.8 0.45333,1.17334 1.07999,2.18668 1.88,3.04 0.79999,0.82668 1.74666,1.48001 2.84,1.96 1.11999,0.48001 2.33332,0.72001 3.64,0.72 l 12.44,0 0,-7.56 -13.12,0 0,-4.28 18.24,0 0,16.92 -17.56,0"
             style="fill:#000000"
             id="path3292" />
        </g>
      </g>
    </g>
    <path
       sodipodi:nodetypes="cc"
       id="path3258"
       d="m -27.419451,485.22522 c 10.91141,5.44299 14.64671,5.94943 28.4706203,6.59493"
       style="fill:none;stroke:#ffff00;stroke-width:1px;stroke-linecap:butt;stroke-linejoin:miter;stroke-opacity:1;display:inline"
       inkscape:connector-curvature="0" />
    <path
       style="fill:none;stroke:#ffb600;stroke-width:0.5;stroke-linecap:butt;stroke-linejoin:miter;stroke-miterlimit:4;stroke-opacity:1;stroke-dasharray:none;display:inline"
       d="m -27.419451,485.22522 c 10.91141,5.44299 14.64671,5.94943 28.4706203,6.59493"
       id="path3262"
       sodipodi:nodetypes="cc"
       inkscape:connector-curvature="0" />
    <path
       sodipodi:nodetypes="cc"
       id="path3264"
       d="m -27.419451,485.22522 c 8.397,-9.04479 12.01257,-24.34319 7.63696,-36.74866"
       style="fill:none;stroke:#ffb600;stroke-width:0.5;stroke-linecap:butt;stroke-linejoin:miter;stroke-miterlimit:4;stroke-opacity:1;stroke-dasharray:none;display:inline"
       inkscape:connector-curvature="0" />
  </g>
</svg>
